<mxfile modified="2023-03-15T22:06:59.672Z" host="Electron" agent="5.0 (Windows NT 10.0; Win64; x64) AppleWebKit/537.36 (KHTML, like Gecko) draw.io/20.3.0 Chrome/104.0.5112.114 Electron/20.1.3 Safari/537.36" etag="ajaF_NsmSWaejjo2dP2m" compressed="false" version="20.3.0" type="device">
  <diagram id="SUlloviLEK3GCr1z7qYn" name="Scheduling">
    <mxGraphModel dx="782" dy="517" grid="1" gridSize="10" guides="1" tooltips="1" connect="1" arrows="1" fold="1" page="1" pageScale="1" pageWidth="827" pageHeight="1169" math="0" shadow="0">
      <root>
        <mxCell id="c33PYlKowwjvGiEupuyr-0" />
        <mxCell id="c33PYlKowwjvGiEupuyr-1" parent="c33PYlKowwjvGiEupuyr-0" />
        <UserObject label="" tooltip="" id="FQO2_twcLr-UXP7qnLfA-22">
          <mxCell style="shape=image;html=1;verticalAlign=top;verticalLabelPosition=bottom;labelBackgroundColor=#ffffff;imageAspect=0;aspect=fixed;image=https://cdn1.iconfinder.com/data/icons/hawcons/32/699014-icon-28-information-128.png;shadow=0;dashed=0;fontFamily=Helvetica;fontSize=12;fontColor=#000000;align=center;strokeColor=#000000;fillColor=#505050;dashPattern=1 1;" parent="c33PYlKowwjvGiEupuyr-1" vertex="1">
            <mxGeometry x="330" y="410" width="20" height="20" as="geometry" />
          </mxCell>
        </UserObject>
        <mxCell id="wdtPpUS4_MztBkoxUnBw-32" style="edgeStyle=none;rounded=0;orthogonalLoop=1;jettySize=auto;html=1;entryX=0;entryY=1;entryDx=0;entryDy=0;endArrow=open;endFill=0;" parent="c33PYlKowwjvGiEupuyr-1" source="wdtPpUS4_MztBkoxUnBw-0" target="wdtPpUS4_MztBkoxUnBw-2" edge="1">
          <mxGeometry relative="1" as="geometry" />
        </mxCell>
        <mxCell id="wdtPpUS4_MztBkoxUnBw-33" style="edgeStyle=none;rounded=0;orthogonalLoop=1;jettySize=auto;html=1;entryX=0;entryY=0.75;entryDx=0;entryDy=0;endArrow=open;endFill=0;" parent="c33PYlKowwjvGiEupuyr-1" source="wdtPpUS4_MztBkoxUnBw-0" target="wdtPpUS4_MztBkoxUnBw-7" edge="1">
          <mxGeometry relative="1" as="geometry" />
        </mxCell>
        <mxCell id="wdtPpUS4_MztBkoxUnBw-34" style="edgeStyle=none;rounded=0;orthogonalLoop=1;jettySize=auto;html=1;entryX=0;entryY=0.75;entryDx=0;entryDy=0;endArrow=open;endFill=0;" parent="c33PYlKowwjvGiEupuyr-1" source="wdtPpUS4_MztBkoxUnBw-0" target="wdtPpUS4_MztBkoxUnBw-12" edge="1">
          <mxGeometry relative="1" as="geometry" />
        </mxCell>
        <mxCell id="wdtPpUS4_MztBkoxUnBw-35" style="edgeStyle=none;rounded=0;orthogonalLoop=1;jettySize=auto;html=1;entryX=0;entryY=1;entryDx=0;entryDy=0;endArrow=open;endFill=0;" parent="c33PYlKowwjvGiEupuyr-1" source="wdtPpUS4_MztBkoxUnBw-0" target="wdtPpUS4_MztBkoxUnBw-17" edge="1">
          <mxGeometry relative="1" as="geometry" />
        </mxCell>
        <mxCell id="wdtPpUS4_MztBkoxUnBw-36" style="edgeStyle=none;rounded=0;orthogonalLoop=1;jettySize=auto;html=1;entryX=0;entryY=0.75;entryDx=0;entryDy=0;endArrow=open;endFill=0;" parent="c33PYlKowwjvGiEupuyr-1" source="wdtPpUS4_MztBkoxUnBw-0" target="wdtPpUS4_MztBkoxUnBw-22" edge="1">
          <mxGeometry relative="1" as="geometry" />
        </mxCell>
        <mxCell id="wdtPpUS4_MztBkoxUnBw-0" value="&lt;p style=&quot;line-height: 100%&quot;&gt;&amp;lt;&amp;lt;actor&amp;gt;&amp;gt;&lt;br&gt;&lt;b&gt;Authenticated&lt;br&gt;User&lt;/b&gt;&lt;br&gt;&lt;/p&gt;" style="text;html=1;align=center;verticalAlign=middle;dashed=0;strokeColor=#000000;strokeWidth=2;" parent="c33PYlKowwjvGiEupuyr-1" vertex="1">
          <mxGeometry x="120" y="200" width="80" height="60" as="geometry" />
        </mxCell>
        <mxCell id="wdtPpUS4_MztBkoxUnBw-1" value="" style="fontStyle=1;align=center;verticalAlign=top;childLayout=stackLayout;horizontal=1;horizontalStack=0;resizeParent=1;resizeParentMax=0;resizeLast=0;marginBottom=0;strokeColor=#82b366;strokeWidth=2;fillColor=none;" parent="c33PYlKowwjvGiEupuyr-1" vertex="1">
          <mxGeometry x="240" y="120" width="120" height="63" as="geometry" />
        </mxCell>
        <mxCell id="wdtPpUS4_MztBkoxUnBw-2" value="List SummaryItems &lt;br&gt;of Scheduled Tasks" style="html=1;align=left;spacingLeft=4;verticalAlign=middle;strokeColor=none;fillColor=none;fontStyle=1" parent="wdtPpUS4_MztBkoxUnBw-1" vertex="1">
          <mxGeometry width="120" height="30" as="geometry" />
        </mxCell>
        <mxCell id="wdtPpUS4_MztBkoxUnBw-3" value="" style="shape=ellipse;" parent="wdtPpUS4_MztBkoxUnBw-2" vertex="1">
          <mxGeometry x="1" width="10" height="16" relative="1" as="geometry">
            <mxPoint x="-25" y="7" as="offset" />
          </mxGeometry>
        </mxCell>
        <mxCell id="wdtPpUS4_MztBkoxUnBw-4" value="" style="line;strokeWidth=1;fillColor=none;align=left;verticalAlign=middle;spacingTop=-1;spacingLeft=3;spacingRight=3;rotatable=0;labelPosition=right;points=[];portConstraint=eastwest;" parent="wdtPpUS4_MztBkoxUnBw-1" vertex="1">
          <mxGeometry y="30" width="120" height="8" as="geometry" />
        </mxCell>
        <mxCell id="wdtPpUS4_MztBkoxUnBw-5" value="." style="html=1;align=center;spacingLeft=4;verticalAlign=top;strokeColor=none;fillColor=none;" parent="wdtPpUS4_MztBkoxUnBw-1" vertex="1">
          <mxGeometry y="38" width="120" height="25" as="geometry" />
        </mxCell>
        <mxCell id="wdtPpUS4_MztBkoxUnBw-6" value="" style="fontStyle=1;align=center;verticalAlign=top;childLayout=stackLayout;horizontal=1;horizontalStack=0;resizeParent=1;resizeParentMax=0;resizeLast=0;marginBottom=0;strokeColor=#82b366;strokeWidth=2;fillColor=none;" parent="c33PYlKowwjvGiEupuyr-1" vertex="1">
          <mxGeometry x="240" y="190" width="120" height="63" as="geometry" />
        </mxCell>
        <mxCell id="wdtPpUS4_MztBkoxUnBw-7" value="View a&lt;br&gt;Scheduled Task" style="html=1;align=left;spacingLeft=4;verticalAlign=middle;strokeColor=none;fillColor=none;fontStyle=1" parent="wdtPpUS4_MztBkoxUnBw-6" vertex="1">
          <mxGeometry width="120" height="30" as="geometry" />
        </mxCell>
        <mxCell id="wdtPpUS4_MztBkoxUnBw-8" value="" style="shape=ellipse;" parent="wdtPpUS4_MztBkoxUnBw-7" vertex="1">
          <mxGeometry x="1" width="10" height="16" relative="1" as="geometry">
            <mxPoint x="-25" y="7" as="offset" />
          </mxGeometry>
        </mxCell>
        <mxCell id="wdtPpUS4_MztBkoxUnBw-9" value="" style="line;strokeWidth=1;fillColor=none;align=left;verticalAlign=middle;spacingTop=-1;spacingLeft=3;spacingRight=3;rotatable=0;labelPosition=right;points=[];portConstraint=eastwest;" parent="wdtPpUS4_MztBkoxUnBw-6" vertex="1">
          <mxGeometry y="30" width="120" height="8" as="geometry" />
        </mxCell>
        <mxCell id="wdtPpUS4_MztBkoxUnBw-10" value="." style="html=1;align=center;spacingLeft=4;verticalAlign=top;strokeColor=none;fillColor=none;" parent="wdtPpUS4_MztBkoxUnBw-6" vertex="1">
          <mxGeometry y="38" width="120" height="25" as="geometry" />
        </mxCell>
        <mxCell id="wdtPpUS4_MztBkoxUnBw-11" value="" style="fontStyle=1;align=center;verticalAlign=top;childLayout=stackLayout;horizontal=1;horizontalStack=0;resizeParent=1;resizeParentMax=0;resizeLast=0;marginBottom=0;strokeColor=#82b366;strokeWidth=2;fillColor=none;" parent="c33PYlKowwjvGiEupuyr-1" vertex="1">
          <mxGeometry x="240" y="260" width="120" height="63" as="geometry" />
        </mxCell>
        <mxCell id="wdtPpUS4_MztBkoxUnBw-12" value="Create a&lt;br&gt;Scheduled Task" style="html=1;align=left;spacingLeft=4;verticalAlign=middle;strokeColor=none;fillColor=none;fontStyle=1" parent="wdtPpUS4_MztBkoxUnBw-11" vertex="1">
          <mxGeometry width="120" height="30" as="geometry" />
        </mxCell>
        <mxCell id="wdtPpUS4_MztBkoxUnBw-13" value="" style="shape=ellipse;" parent="wdtPpUS4_MztBkoxUnBw-12" vertex="1">
          <mxGeometry x="1" width="10" height="16" relative="1" as="geometry">
            <mxPoint x="-25" y="7" as="offset" />
          </mxGeometry>
        </mxCell>
        <mxCell id="wdtPpUS4_MztBkoxUnBw-14" value="" style="line;strokeWidth=1;fillColor=none;align=left;verticalAlign=middle;spacingTop=-1;spacingLeft=3;spacingRight=3;rotatable=0;labelPosition=right;points=[];portConstraint=eastwest;" parent="wdtPpUS4_MztBkoxUnBw-11" vertex="1">
          <mxGeometry y="30" width="120" height="8" as="geometry" />
        </mxCell>
        <mxCell id="wdtPpUS4_MztBkoxUnBw-15" value="." style="html=1;align=center;spacingLeft=4;verticalAlign=top;strokeColor=none;fillColor=none;" parent="wdtPpUS4_MztBkoxUnBw-11" vertex="1">
          <mxGeometry y="38" width="120" height="25" as="geometry" />
        </mxCell>
        <mxCell id="wdtPpUS4_MztBkoxUnBw-16" value="" style="fontStyle=1;align=center;verticalAlign=top;childLayout=stackLayout;horizontal=1;horizontalStack=0;resizeParent=1;resizeParentMax=0;resizeLast=0;marginBottom=0;strokeColor=#82b366;strokeWidth=2;fillColor=none;" parent="c33PYlKowwjvGiEupuyr-1" vertex="1">
          <mxGeometry x="240" y="330" width="120" height="63" as="geometry" />
        </mxCell>
        <mxCell id="wdtPpUS4_MztBkoxUnBw-17" value="Update a&lt;br&gt;Scheduled Task" style="html=1;align=left;spacingLeft=4;verticalAlign=middle;strokeColor=none;fillColor=none;fontStyle=1" parent="wdtPpUS4_MztBkoxUnBw-16" vertex="1">
          <mxGeometry width="120" height="30" as="geometry" />
        </mxCell>
        <mxCell id="wdtPpUS4_MztBkoxUnBw-18" value="" style="shape=ellipse;" parent="wdtPpUS4_MztBkoxUnBw-17" vertex="1">
          <mxGeometry x="1" width="10" height="16" relative="1" as="geometry">
            <mxPoint x="-25" y="7" as="offset" />
          </mxGeometry>
        </mxCell>
        <mxCell id="wdtPpUS4_MztBkoxUnBw-19" value="" style="line;strokeWidth=1;fillColor=none;align=left;verticalAlign=middle;spacingTop=-1;spacingLeft=3;spacingRight=3;rotatable=0;labelPosition=right;points=[];portConstraint=eastwest;" parent="wdtPpUS4_MztBkoxUnBw-16" vertex="1">
          <mxGeometry y="30" width="120" height="8" as="geometry" />
        </mxCell>
        <mxCell id="wdtPpUS4_MztBkoxUnBw-20" value="." style="html=1;align=center;spacingLeft=4;verticalAlign=top;strokeColor=none;fillColor=none;" parent="wdtPpUS4_MztBkoxUnBw-16" vertex="1">
          <mxGeometry y="38" width="120" height="25" as="geometry" />
        </mxCell>
        <mxCell id="wdtPpUS4_MztBkoxUnBw-21" value="" style="fontStyle=1;align=center;verticalAlign=top;childLayout=stackLayout;horizontal=1;horizontalStack=0;resizeParent=1;resizeParentMax=0;resizeLast=0;marginBottom=0;strokeColor=#82b366;strokeWidth=2;fillColor=none;" parent="c33PYlKowwjvGiEupuyr-1" vertex="1">
          <mxGeometry x="240" y="400" width="120" height="63" as="geometry" />
        </mxCell>
        <mxCell id="wdtPpUS4_MztBkoxUnBw-22" value="Change State of a&lt;br&gt;Scheduled Task" style="html=1;align=left;spacingLeft=4;verticalAlign=middle;strokeColor=none;fillColor=none;fontStyle=1" parent="wdtPpUS4_MztBkoxUnBw-21" vertex="1">
          <mxGeometry width="120" height="30" as="geometry" />
        </mxCell>
        <mxCell id="wdtPpUS4_MztBkoxUnBw-23" value="" style="shape=ellipse;" parent="wdtPpUS4_MztBkoxUnBw-22" vertex="1">
          <mxGeometry x="1" width="10" height="16" relative="1" as="geometry">
            <mxPoint x="-25" y="7" as="offset" />
          </mxGeometry>
        </mxCell>
        <mxCell id="wdtPpUS4_MztBkoxUnBw-24" value="" style="line;strokeWidth=1;fillColor=none;align=left;verticalAlign=middle;spacingTop=-1;spacingLeft=3;spacingRight=3;rotatable=0;labelPosition=right;points=[];portConstraint=eastwest;" parent="wdtPpUS4_MztBkoxUnBw-21" vertex="1">
          <mxGeometry y="30" width="120" height="8" as="geometry" />
        </mxCell>
        <mxCell id="wdtPpUS4_MztBkoxUnBw-25" value="Pause/Continue/Delete" style="html=1;align=center;spacingLeft=4;verticalAlign=top;strokeColor=none;fillColor=none;" parent="wdtPpUS4_MztBkoxUnBw-21" vertex="1">
          <mxGeometry y="38" width="120" height="25" as="geometry" />
        </mxCell>
        <mxCell id="wdtPpUS4_MztBkoxUnBw-47" style="edgeStyle=none;rounded=0;orthogonalLoop=1;jettySize=auto;html=1;entryX=0;entryY=0.75;entryDx=0;entryDy=0;endArrow=open;endFill=0;" parent="c33PYlKowwjvGiEupuyr-1" source="wdtPpUS4_MztBkoxUnBw-31" target="wdtPpUS4_MztBkoxUnBw-43" edge="1">
          <mxGeometry relative="1" as="geometry" />
        </mxCell>
        <mxCell id="wdtPpUS4_MztBkoxUnBw-31" value="&lt;p style=&quot;line-height: 100%&quot;&gt;&amp;lt;&amp;lt;actor&amp;gt;&amp;gt;&lt;br&gt;&lt;b&gt;Daemon&lt;/b&gt;&lt;/p&gt;" style="text;html=1;align=center;verticalAlign=middle;dashed=0;strokeColor=#000000;strokeWidth=2;" parent="c33PYlKowwjvGiEupuyr-1" vertex="1">
          <mxGeometry x="120" y="527" width="80" height="60" as="geometry" />
        </mxCell>
        <mxCell id="wdtPpUS4_MztBkoxUnBw-42" value="" style="fontStyle=1;align=center;verticalAlign=top;childLayout=stackLayout;horizontal=1;horizontalStack=0;resizeParent=1;resizeParentMax=0;resizeLast=0;marginBottom=0;strokeColor=#82b366;strokeWidth=2;fillColor=none;" parent="c33PYlKowwjvGiEupuyr-1" vertex="1">
          <mxGeometry x="240" y="537" width="120" height="63" as="geometry" />
        </mxCell>
        <mxCell id="wdtPpUS4_MztBkoxUnBw-43" value="Run Scheduled&lt;br&gt;Tasks" style="html=1;align=left;spacingLeft=4;verticalAlign=middle;strokeColor=none;fillColor=none;fontStyle=1" parent="wdtPpUS4_MztBkoxUnBw-42" vertex="1">
          <mxGeometry width="120" height="30" as="geometry" />
        </mxCell>
        <mxCell id="wdtPpUS4_MztBkoxUnBw-44" value="" style="shape=ellipse;" parent="wdtPpUS4_MztBkoxUnBw-43" vertex="1">
          <mxGeometry x="1" width="10" height="16" relative="1" as="geometry">
            <mxPoint x="-25" y="7" as="offset" />
          </mxGeometry>
        </mxCell>
        <mxCell id="wdtPpUS4_MztBkoxUnBw-45" value="" style="line;strokeWidth=1;fillColor=none;align=left;verticalAlign=middle;spacingTop=-1;spacingLeft=3;spacingRight=3;rotatable=0;labelPosition=right;points=[];portConstraint=eastwest;" parent="wdtPpUS4_MztBkoxUnBw-42" vertex="1">
          <mxGeometry y="30" width="120" height="8" as="geometry" />
        </mxCell>
        <mxCell id="wdtPpUS4_MztBkoxUnBw-46" value="Pause/Continue/Delete" style="html=1;align=center;spacingLeft=4;verticalAlign=top;strokeColor=none;fillColor=none;" parent="wdtPpUS4_MztBkoxUnBw-42" vertex="1">
          <mxGeometry y="38" width="120" height="25" as="geometry" />
        </mxCell>
        <mxCell id="wdtPpUS4_MztBkoxUnBw-54" style="edgeStyle=none;rounded=0;orthogonalLoop=1;jettySize=auto;html=1;entryX=0;entryY=0.75;entryDx=0;entryDy=0;endArrow=open;endFill=0;" parent="c33PYlKowwjvGiEupuyr-1" source="wdtPpUS4_MztBkoxUnBw-48" target="wdtPpUS4_MztBkoxUnBw-50" edge="1">
          <mxGeometry relative="1" as="geometry" />
        </mxCell>
        <mxCell id="wdtPpUS4_MztBkoxUnBw-48" value="&lt;p style=&quot;line-height: 100%&quot;&gt;&amp;lt;&amp;lt;actor&amp;gt;&amp;gt;&lt;br&gt;&lt;b&gt;Sys&lt;br&gt;Admin&lt;/b&gt;&lt;/p&gt;" style="text;html=1;align=center;verticalAlign=middle;dashed=0;strokeColor=#000000;strokeWidth=2;" parent="c33PYlKowwjvGiEupuyr-1" vertex="1">
          <mxGeometry x="120" y="463" width="80" height="60" as="geometry" />
        </mxCell>
        <mxCell id="wdtPpUS4_MztBkoxUnBw-49" value="" style="fontStyle=1;align=center;verticalAlign=top;childLayout=stackLayout;horizontal=1;horizontalStack=0;resizeParent=1;resizeParentMax=0;resizeLast=0;marginBottom=0;strokeColor=#82b366;strokeWidth=2;fillColor=none;" parent="c33PYlKowwjvGiEupuyr-1" vertex="1">
          <mxGeometry x="240" y="470" width="120" height="63" as="geometry" />
        </mxCell>
        <mxCell id="wdtPpUS4_MztBkoxUnBw-50" value="Change State of&lt;br&gt;Task Engine" style="html=1;align=left;spacingLeft=4;verticalAlign=middle;strokeColor=none;fillColor=none;fontStyle=1" parent="wdtPpUS4_MztBkoxUnBw-49" vertex="1">
          <mxGeometry width="120" height="30" as="geometry" />
        </mxCell>
        <mxCell id="wdtPpUS4_MztBkoxUnBw-51" value="" style="shape=ellipse;" parent="wdtPpUS4_MztBkoxUnBw-50" vertex="1">
          <mxGeometry x="1" width="10" height="16" relative="1" as="geometry">
            <mxPoint x="-25" y="7" as="offset" />
          </mxGeometry>
        </mxCell>
        <mxCell id="wdtPpUS4_MztBkoxUnBw-52" value="" style="line;strokeWidth=1;fillColor=none;align=left;verticalAlign=middle;spacingTop=-1;spacingLeft=3;spacingRight=3;rotatable=0;labelPosition=right;points=[];portConstraint=eastwest;" parent="wdtPpUS4_MztBkoxUnBw-49" vertex="1">
          <mxGeometry y="30" width="120" height="8" as="geometry" />
        </mxCell>
        <mxCell id="wdtPpUS4_MztBkoxUnBw-53" value="Pause/Continue" style="html=1;align=center;spacingLeft=4;verticalAlign=top;strokeColor=none;fillColor=none;" parent="wdtPpUS4_MztBkoxUnBw-49" vertex="1">
          <mxGeometry y="38" width="120" height="25" as="geometry" />
        </mxCell>
        <mxCell id="m8XtCI1CGljEh2FDD2Vw-0" value="Depending on&amp;nbsp;&lt;br&gt;Permissions, Users can see their own tasks, or those of others (eg: Sys Admins)." style="shape=note;size=20;whiteSpace=wrap;html=1;strokeWidth=1;fillColor=none;verticalAlign=top;" parent="c33PYlKowwjvGiEupuyr-1" vertex="1">
          <mxGeometry x="440" y="120" width="100" height="100" as="geometry" />
        </mxCell>
        <mxCell id="m8XtCI1CGljEh2FDD2Vw-1" value="Depending on&amp;nbsp;&lt;br&gt;Permissions, most Users are limited to creating only a small number of short runningTasks." style="shape=note;size=20;whiteSpace=wrap;html=1;strokeWidth=1;fillColor=none;verticalAlign=top;" parent="c33PYlKowwjvGiEupuyr-1" vertex="1">
          <mxGeometry x="440" y="230" width="100" height="110" as="geometry" />
        </mxCell>
        <mxCell id="m8XtCI1CGljEh2FDD2Vw-2" value="Pausing the Engine&lt;br&gt;is a step in shutting down the system." style="shape=note;size=20;whiteSpace=wrap;html=1;strokeWidth=1;fillColor=none;verticalAlign=top;" parent="c33PYlKowwjvGiEupuyr-1" vertex="1">
          <mxGeometry x="440" y="490" width="100" height="110" as="geometry" />
        </mxCell>
        <mxCell id="SMp-CgjgsrAM0XsRxkvN-0" value="Title" parent="c33PYlKowwjvGiEupuyr-0" visible="0" />
        <mxCell id="FQO2_twcLr-UXP7qnLfA-0" value="&lt;font style=&quot;font-size: 12px ; font-weight: normal&quot;&gt;&lt;i&gt;&lt;span style=&quot;font-size: 12px&quot;&gt;Diagram: Base System Logical Module -&amp;nbsp;&lt;/span&gt;&lt;span style=&quot;font-size: 12px&quot;&gt;Functionality -&amp;nbsp;&lt;/span&gt;Scheduling&lt;/i&gt;&lt;/font&gt;" style="text;strokeColor=none;fillColor=none;html=1;fontSize=12;fontStyle=1;verticalAlign=middle;align=left;shadow=0;glass=0;comic=0;opacity=30;fontColor=#808080;" parent="SMp-CgjgsrAM0XsRxkvN-0" vertex="1">
          <mxGeometry x="120" y="610" width="520" height="20" as="geometry" />
        </mxCell>
      </root>
    </mxGraphModel>
  </diagram>
</mxfile>
